<?xml version="1.0" encoding="UTF-8"?>
<svg id="Layer_1" data-name="Layer 1" xmlns="http://www.w3.org/2000/svg" viewBox="0 0 600 479.06">
  <g>
    <path d="M2.75,405.01v-57.31h12.2v57.31H2.75Z"/>
    <path d="M62.2,405.01l-27.32-38.49v38.49h-12.2v-57.31h12.54l26.55,37.12v-37.12h12.2v57.31h-11.77Z"/>
    <path d="M85.48,387.66c4.04,4.21,10.31,7.73,18.21,7.73,6.7,0,9.97-3.18,9.97-6.44,0-4.3-4.98-5.76-11.6-7.3-9.37-2.15-21.39-4.73-21.39-17.53,0-9.54,8.25-17.27,21.74-17.27,9.11,0,16.67,2.75,22.34,7.99l-6.79,8.94c-4.64-4.3-10.83-6.27-16.41-6.27s-8.42,2.41-8.42,5.84c0,3.87,4.81,5.07,11.43,6.62,9.45,2.15,21.48,4.98,21.48,17.7,0,10.48-7.47,18.39-22.94,18.39-11,0-18.9-3.69-24.31-9.11l6.7-9.28Z"/>
    <path d="M144.33,405.01v-46.57h-16.75v-10.74h45.71v10.74h-16.67v46.57h-12.29Z"/>
    <path d="M178.52,405.01v-57.31h12.2v57.31h-12.2Z"/>
    <path d="M212.71,405.01v-46.57h-16.75v-10.74h45.71v10.74h-16.67v46.57h-12.29Z"/>
    <path d="M246.9,347.7h12.37v34.02c0,7.99,4.38,13.49,13.32,13.49s13.15-5.5,13.15-13.49v-34.02h12.37v34.37c0,14.26-8.16,23.97-25.52,23.97s-25.69-9.79-25.69-23.88v-34.45Z"/>
    <path d="M320.1,405.01v-46.57h-16.75v-10.74h45.71v10.74h-16.67v46.57h-12.29Z"/>
    <path d="M354.29,405.01v-57.31h40.55v10.48h-28.35v12.46h27.75v10.48h-27.75v13.32h28.35v10.57h-40.55Z"/>
    <path d="M421.22,405.01v-57.31h40.55v10.48h-28.35v12.46h27.75v10.48h-27.75v23.88h-12.2Z"/>
    <path d="M494.84,346.76c17.36,0,29.98,12.37,29.98,29.64s-12.63,29.64-29.98,29.64-29.9-12.37-29.9-29.64,12.63-29.64,29.9-29.64ZM494.84,357.59c-10.57,0-17.36,8.08-17.36,18.82s6.79,18.82,17.36,18.82,17.44-8.16,17.44-18.82-6.87-18.82-17.44-18.82Z"/>
    <path d="M563.23,405.01l-11.26-20.53h-8.94v20.53h-12.2v-57.31h26.81c11.94,0,19.25,7.82,19.25,18.47s-6.36,15.55-12.54,17.01l12.89,21.82h-14ZM555.84,358.19h-12.8v15.81h12.8c4.9,0,8.59-3.09,8.59-7.9s-3.69-7.9-8.59-7.9Z"/>
    <path d="M0,449.42c0-17.61,13.32-29.64,30.07-29.64,13.06,0,20.36,6.87,24.4,14l-10.48,5.16c-2.41-4.64-7.56-8.33-13.92-8.33-9.97,0-17.53,7.99-17.53,18.82s7.56,18.82,17.53,18.82c6.36,0,11.51-3.61,13.92-8.33l10.48,5.07c-4.12,7.13-11.34,14.09-24.4,14.09-16.75,0-30.07-12.03-30.07-29.64Z"/>
    <path d="M91.58,478.03l-11.25-20.53h-8.94v20.53h-12.2v-57.31h26.81c11.94,0,19.25,7.82,19.25,18.47s-6.36,15.55-12.54,17.01l12.89,21.82h-14ZM84.19,431.21h-12.8v15.81h12.8c4.9,0,8.59-3.09,8.59-7.9s-3.69-7.9-8.59-7.9Z"/>
    <path d="M110.22,478.03v-57.31h40.55v10.48h-28.35v12.46h27.75v10.48h-27.75v13.32h28.35v10.57h-40.55Z"/>
    <path d="M199.4,478.03l-3.61-9.88h-25.6l-3.61,9.88h-13.4l22.17-57.31h15.29l22.08,57.31h-13.32ZM182.99,431.29l-9.54,26.29h18.99l-9.45-26.29Z"/>
    <path d="M223.2,478.03v-46.57h-16.75v-10.74h45.71v10.74h-16.67v46.57h-12.29Z"/>
    <path d="M257.39,478.03v-57.31h12.2v57.31h-12.2Z"/>
    <path d="M294.41,478.03l-22.17-57.31h13.92l15.89,44.08,15.81-44.08h13.92l-22.08,57.31h-15.29Z"/>
    <path d="M334.96,478.03v-57.31h40.55v10.48h-28.35v12.46h27.75v10.48h-27.75v13.32h28.35v10.57h-40.55Z"/>
    <path d="M442.01,478.03l-3.61-9.88h-25.6l-3.61,9.88h-13.4l22.17-57.31h15.29l22.08,57.31h-13.32ZM425.6,431.29l-9.54,26.29h18.99l-9.45-26.29Z"/>
    <path d="M490.46,478.03l-11.25-20.53h-8.94v20.53h-12.2v-57.31h26.81c11.94,0,19.25,7.82,19.25,18.47s-6.36,15.55-12.54,17.01l12.89,21.82h-14ZM483.07,431.21h-12.8v15.81h12.8c4.9,0,8.59-3.09,8.59-7.9s-3.69-7.9-8.59-7.9Z"/>
    <path d="M523.11,478.03v-46.57h-16.75v-10.74h45.71v10.74h-16.67v46.57h-12.29Z"/>
    <path d="M559.45,460.67c4.04,4.21,10.31,7.73,18.21,7.73,6.7,0,9.97-3.18,9.97-6.44,0-4.3-4.98-5.76-11.6-7.3-9.37-2.15-21.39-4.73-21.39-17.53,0-9.54,8.25-17.27,21.74-17.27,9.11,0,16.67,2.75,22.34,7.99l-6.79,8.94c-4.64-4.3-10.83-6.27-16.41-6.27s-8.42,2.41-8.42,5.84c0,3.87,4.81,5.07,11.43,6.62,9.45,2.15,21.48,4.98,21.48,17.7,0,10.48-7.47,18.39-22.94,18.39-11,0-18.9-3.69-24.31-9.11l6.7-9.28Z"/>
  </g>
  <g>
    <path d="M60.07,46.98c0-5.08-4.11-9.28-9.2-9.28s-9.28,4.2-9.28,9.28,4.2,9.28,9.28,9.28,9.2-4.2,9.2-9.28Z"/>
    <path d="M425.44,199.26c3.54,0,6.44-2.9,6.44-6.44s-2.9-6.52-6.44-6.52-6.52,2.9-6.52,6.52,2.98,6.44,6.52,6.44Z"/>
    <path d="M326.02,39.8c0-3.62-2.9-6.52-6.44-6.52s-6.52,2.9-6.52,6.52,2.98,6.44,6.52,6.44,6.44-2.9,6.44-6.44Z"/>
    <path d="M459.51,120.97c3.54,0,6.44-2.9,6.44-6.44s-2.9-6.52-6.44-6.52-6.52,2.9-6.52,6.52,2.98,6.44,6.52,6.44Z"/>
    <path d="M89.32,276.86c3.55,0,6.45-2.91,6.45-6.45s-2.9-6.53-6.45-6.53-6.53,2.9-6.53,6.53,2.98,6.45,6.53,6.45Z"/>
    <path d="M549.16,189.92c14.17-19.43,22.27-42.52,22.27-68.03C571.43,54.67,511.91,0,437.4,0h-163.31v37.11C244.72,13.95,207.15,0,166.4,0H2.81v323.95h163.59c40.75,0,78.32-13.95,107.69-37.11v37.11h197.25v-79.77h23.03v79.77h84.35v-134.03h-29.56ZM132.53,89.43h26.38v64.54h-26.38v-64.54ZM95.96,14.7h26.38v64.54h-26.38V14.7ZM19.49,14.7h32.59c18.56,0,33.8,14.52,33.8,32.27s-15.25,32.27-33.8,32.27H19.49V14.7ZM118.61,309.94h-25.82v-15.89h-11.13l-4.28,15.89h-26.78l17.26-64.54h50.75v64.54ZM58.91,189.51v-21.78h51.39v21.78h-12.5v42.76h-26.38v-42.76h-12.5ZM122.45,153.97h-32.59c-18.47,0-33.8-14.52-33.8-32.27s15.33-32.27,33.8-32.27h12.18v14.52h20.41v50.02ZM172.91,309.94h-44.13v-64.54h26.38v42.76h17.75v21.78ZM361.13,14.85h49.67v21.73h-21.73c-2.33,0-4.03,1.77-4.03,4.27s1.69,4.27,4.03,4.27h7.24v12.4h14.49v21.73h-49.67V14.85ZM378.36,109.7c-3.47,0-5.67,2.09-5.67,4.99v39.28h-26.85v-64.4h64.96v64.4h-26.85v-39.28c0-2.9-2.71-4.99-5.59-4.99ZM290.77,14.85h32.2c14.81,0,26.64,10.87,26.64,24.23,0,5.07-1.61,9.66-4.43,13.52h5.88v26.64h-25.52v-15.86h-9.26v15.86h-25.52V14.85ZM290.77,232.27v-21.73h12.72l-4.51-16.99c-3.94-14.89,3.38-25.68,17.23-25.68h21.41v21.73h-11.67l4.67,17.71c3.78,14.41-3.54,24.95-17.39,24.95h-22.46ZM380.76,309.94h-25.52v-39.28c0-2.9-2.58-4.99-5.31-4.99-3.3,0-5.39,2.09-5.39,4.99v39.28h-25.52v-64.4h61.74v64.4ZM363.36,232.27h-22.46v-21.73h12.72l-4.51-16.99c-3.94-14.89,3.38-25.68,17.23-25.68h21.41v21.73h-11.67l4.67,17.71c3.78,14.41-3.54,24.95-17.39,24.95ZM454.66,276.05h-19.8c-.56-4.19-4.51-7.57-9.02-7.57-5.07,0-9.26,4.19-9.26,9.26s4.19,9.26,9.26,9.26c4.51,0,8.61-3.46,9.02-7.73h19.8v30.67h-30.11c-18.68,0-33.73-14.49-33.73-32.2s15.05-32.2,33.73-32.2h30.11v30.51ZM454.66,232.27h-25.76v-15.86h-11.11l-4.27,15.86h-26.72l17.23-64.4h50.63v64.4ZM488.73,153.97h-25.76v-15.86h-11.11l-4.27,15.86h-26.72l17.23-64.4h50.63v64.4ZM498.8,89.57h26.32v64.4h-26.32v-64.4ZM560.71,267.28h-21.73c-2.33,0-4.02,1.77-4.02,4.27s1.69,4.27,4.02,4.27h7.24v12.4h14.49v21.73h-49.67v-64.4h49.67v21.73Z"/>
    <path d="M90.99,114.84c-4.44,0-8.31,3.79-8.31,8.47s3.87,8.47,8.31,8.47,8.55-3.87,8.55-8.47-3.95-8.47-8.55-8.47Z"/>
  </g>
</svg>